<?xml version="1.0" encoding="UTF-8" standalone="no"?>
<!DOCTYPE svg PUBLIC "-//W3C//DTD SVG 1.1//EN"
 "http://www.w3.org/Graphics/SVG/1.1/DTD/svg11.dtd">
<!-- Generated by graphviz version 12.2.1 (0)
 -->
<!-- Pages: 1 -->
<svg width="1908pt" height="692pt"
 viewBox="0.00 0.00 1907.73 692.00" xmlns="http://www.w3.org/2000/svg" xmlns:xlink="http://www.w3.org/1999/xlink">
<g id="graph0" class="graph" transform="scale(1 1) rotate(0) translate(4 688)">
<polygon fill="white" stroke="none" points="-4,4 -4,-688 1903.73,-688 1903.73,4 -4,4"/>
<!-- /home/theobori/fun/dv/test/example&#45;files/ -->
<g id="node1" class="node">
<title>/home/theobori/fun/dv/test/example&#45;files/</title>
<ellipse fill="none" stroke="green" cx="948.08" cy="-666" rx="216.41" ry="18"/>
<text text-anchor="middle" x="948.08" y="-661.33" font-family="Times,serif" font-size="14.00">/home/theobori/fun/dv/test/example&#45;files/</text>
</g>
<!-- /home/theobori/fun/dv/test/example&#45;files/a/b/c.el -->
<g id="node2" class="node">
<title>/home/theobori/fun/dv/test/example&#45;files/a/b/c.el</title>
<ellipse fill="none" stroke="blue" cx="808.08" cy="-594" rx="252.18" ry="18"/>
<text text-anchor="middle" x="808.08" y="-589.33" font-family="Times,serif" font-size="14.00">/home/theobori/fun/dv/test/example&#45;files/a/b/c.el</text>
</g>
<!-- /home/theobori/fun/dv/test/example&#45;files/&#45;&gt;/home/theobori/fun/dv/test/example&#45;files/a/b/c.el -->
<g id="edge59" class="edge">
<title>/home/theobori/fun/dv/test/example&#45;files/&#45;&gt;/home/theobori/fun/dv/test/example&#45;files/a/b/c.el</title>
<path fill="none" stroke="black" d="M913.83,-647.88C895.36,-638.64 872.34,-627.13 852.5,-617.21"/>
<polygon fill="black" stroke="black" points="854.32,-614.21 843.81,-612.87 851.19,-620.47 854.32,-614.21"/>
</g>
<!-- /home/theobori/fun/dv/test/example&#45;files/a.el -->
<g id="node3" class="node">
<title>/home/theobori/fun/dv/test/example&#45;files/a.el</title>
<ellipse fill="none" stroke="blue" cx="1062.08" cy="-522" rx="234.29" ry="18"/>
<text text-anchor="middle" x="1062.08" y="-517.33" font-family="Times,serif" font-size="14.00">/home/theobori/fun/dv/test/example&#45;files/a.el</text>
</g>
<!-- /home/theobori/fun/dv/test/example&#45;files/&#45;&gt;/home/theobori/fun/dv/test/example&#45;files/a.el -->
<g id="edge61" class="edge">
<title>/home/theobori/fun/dv/test/example&#45;files/&#45;&gt;/home/theobori/fun/dv/test/example&#45;files/a.el</title>
<path fill="none" stroke="black" d="M1020.8,-648.71C1039.68,-640.83 1057.85,-629.18 1069.08,-612 1080.74,-594.17 1077.86,-569.82 1072.69,-551.1"/>
<polygon fill="black" stroke="black" points="1076.08,-550.21 1069.74,-541.72 1069.4,-552.31 1076.08,-550.21"/>
</g>
<!-- /home/theobori/fun/dv/test/example&#45;files/a/b.el -->
<g id="node4" class="node">
<title>/home/theobori/fun/dv/test/example&#45;files/a/b.el</title>
<ellipse fill="none" stroke="blue" cx="528.08" cy="-450" rx="243.76" ry="18"/>
<text text-anchor="middle" x="528.08" y="-445.32" font-family="Times,serif" font-size="14.00">/home/theobori/fun/dv/test/example&#45;files/a/b.el</text>
</g>
<!-- /home/theobori/fun/dv/test/example&#45;files/&#45;&gt;/home/theobori/fun/dv/test/example&#45;files/a/b.el -->
<g id="edge60" class="edge">
<title>/home/theobori/fun/dv/test/example&#45;files/&#45;&gt;/home/theobori/fun/dv/test/example&#45;files/a/b.el</title>
<path fill="none" stroke="black" d="M741.03,-660.5C657.96,-654.16 575.22,-640.53 547.08,-612 512.81,-577.25 516.25,-515.71 522.04,-479.62"/>
<polygon fill="black" stroke="black" points="525.46,-480.38 523.77,-469.92 518.57,-479.14 525.46,-480.38"/>
</g>
<!-- /home/theobori/fun/dv/test/example&#45;files/aa.el -->
<g id="node5" class="node">
<title>/home/theobori/fun/dv/test/example&#45;files/aa.el</title>
<ellipse fill="none" stroke="blue" cx="240.08" cy="-378" rx="240.08" ry="18"/>
<text text-anchor="middle" x="240.08" y="-373.32" font-family="Times,serif" font-size="14.00">/home/theobori/fun/dv/test/example&#45;files/aa.el</text>
</g>
<!-- /home/theobori/fun/dv/test/example&#45;files/&#45;&gt;/home/theobori/fun/dv/test/example&#45;files/aa.el -->
<g id="edge62" class="edge">
<title>/home/theobori/fun/dv/test/example&#45;files/&#45;&gt;/home/theobori/fun/dv/test/example&#45;files/aa.el</title>
<path fill="none" stroke="black" d="M780.69,-654.25C701.65,-646.61 606.56,-633.69 523.08,-612 440.49,-590.54 419.5,-581.77 345.08,-540 298.26,-513.72 274.34,-514.83 248.08,-468 237.86,-449.77 236.18,-426.08 236.89,-407.73"/>
<polygon fill="black" stroke="black" points="240.37,-408 237.55,-397.79 233.39,-407.53 240.37,-408"/>
</g>
<!-- /home/theobori/fun/dv/test/example&#45;files/d.el -->
<g id="node12" class="node">
<title>/home/theobori/fun/dv/test/example&#45;files/d.el</title>
<ellipse fill="none" stroke="blue" cx="1549.08" cy="-522" rx="234.82" ry="18"/>
<text text-anchor="middle" x="1549.08" y="-517.33" font-family="Times,serif" font-size="14.00">/home/theobori/fun/dv/test/example&#45;files/d.el</text>
</g>
<!-- /home/theobori/fun/dv/test/example&#45;files/&#45;&gt;/home/theobori/fun/dv/test/example&#45;files/d.el -->
<g id="edge63" class="edge">
<title>/home/theobori/fun/dv/test/example&#45;files/&#45;&gt;/home/theobori/fun/dv/test/example&#45;files/d.el</title>
<path fill="none" stroke="black" d="M1017.91,-648.5C1129.82,-622.06 1348.84,-570.31 1467.68,-542.23"/>
<polygon fill="black" stroke="black" points="1468.47,-545.64 1477.39,-539.94 1466.86,-538.83 1468.47,-545.64"/>
</g>
<!-- /home/theobori/fun/dv/test/example&#45;files/a/b/c/d.el -->
<g id="node26" class="node">
<title>/home/theobori/fun/dv/test/example&#45;files/a/b/c/d.el</title>
<ellipse fill="none" stroke="blue" cx="1638.08" cy="-450" rx="261.65" ry="18"/>
<text text-anchor="middle" x="1638.08" y="-445.32" font-family="Times,serif" font-size="14.00">/home/theobori/fun/dv/test/example&#45;files/a/b/c/d.el</text>
</g>
<!-- /home/theobori/fun/dv/test/example&#45;files/&#45;&gt;/home/theobori/fun/dv/test/example&#45;files/a/b/c/d.el -->
<g id="edge58" class="edge">
<title>/home/theobori/fun/dv/test/example&#45;files/&#45;&gt;/home/theobori/fun/dv/test/example&#45;files/a/b/c/d.el</title>
<path fill="none" stroke="black" d="M1163.46,-663.92C1386.47,-657.68 1713.3,-632.45 1793.08,-540 1820.32,-508.44 1776.28,-485.49 1728.28,-470.81"/>
<polygon fill="black" stroke="black" points="1729.38,-467.49 1718.8,-468.05 1727.42,-474.21 1729.38,-467.49"/>
</g>
<!-- /home/theobori/fun/dv/test/example&#45;files/a/b/c.el&#45;&gt;/home/theobori/fun/dv/test/example&#45;files/a.el -->
<g id="edge57" class="edge">
<title>/home/theobori/fun/dv/test/example&#45;files/a/b/c.el&#45;&gt;/home/theobori/fun/dv/test/example&#45;files/a.el</title>
<path fill="none" stroke="black" d="M869.24,-576.14C905.58,-566.13 951.87,-553.37 989.98,-542.87"/>
<polygon fill="black" stroke="black" points="990.84,-546.26 999.55,-540.23 988.98,-539.52 990.84,-546.26"/>
</g>
<!-- /home/theobori/fun/dv/test/example&#45;files/a/b/c.el&#45;&gt;/home/theobori/fun/dv/test/example&#45;files/d.el -->
<g id="edge56" class="edge">
<title>/home/theobori/fun/dv/test/example&#45;files/a/b/c.el&#45;&gt;/home/theobori/fun/dv/test/example&#45;files/d.el</title>
<path fill="none" stroke="black" d="M955.81,-579.04C1082.68,-567.06 1264.98,-549.84 1393.95,-537.65"/>
<polygon fill="black" stroke="black" points="1393.96,-541.17 1403.58,-536.74 1393.3,-534.2 1393.96,-541.17"/>
</g>
<!-- fj -->
<g id="node13" class="node">
<title>fj</title>
<ellipse fill="none" stroke="red" cx="800.08" cy="-378" rx="27" ry="18"/>
<text text-anchor="middle" x="800.08" y="-373.32" font-family="Times,serif" font-size="14.00">fj</text>
</g>
<!-- /home/theobori/fun/dv/test/example&#45;files/a/b/c.el&#45;&gt;fj -->
<g id="edge55" class="edge">
<title>/home/theobori/fun/dv/test/example&#45;files/a/b/c.el&#45;&gt;fj</title>
<path fill="none" stroke="black" d="M807.44,-575.85C806.07,-539.14 802.84,-452.66 801.15,-407.53"/>
<polygon fill="black" stroke="black" points="804.65,-407.61 800.78,-397.74 797.66,-407.87 804.65,-407.61"/>
</g>
<!-- /home/theobori/fun/dv/test/example&#45;files/a.el&#45;&gt;/home/theobori/fun/dv/test/example&#45;files/a/b.el -->
<g id="edge54" class="edge">
<title>/home/theobori/fun/dv/test/example&#45;files/a.el&#45;&gt;/home/theobori/fun/dv/test/example&#45;files/a/b.el</title>
<path fill="none" stroke="black" d="M946.87,-505.9C861.16,-494.66 744.2,-479.33 655.67,-467.72"/>
<polygon fill="black" stroke="black" points="656.34,-464.28 645.97,-466.45 655.43,-471.22 656.34,-464.28"/>
</g>
<!-- llm -->
<g id="node8" class="node">
<title>llm</title>
<ellipse fill="none" stroke="red" cx="1236.08" cy="-306" rx="27.01" ry="18"/>
<text text-anchor="middle" x="1236.08" y="-301.32" font-family="Times,serif" font-size="14.00">llm</text>
</g>
<!-- /home/theobori/fun/dv/test/example&#45;files/a.el&#45;&gt;llm -->
<g id="edge53" class="edge">
<title>/home/theobori/fun/dv/test/example&#45;files/a.el&#45;&gt;llm</title>
<path fill="none" stroke="black" d="M1076.03,-503.85C1106.91,-465.87 1181.12,-374.6 1216.58,-330.99"/>
<polygon fill="black" stroke="black" points="1219.18,-333.34 1222.77,-323.37 1213.74,-328.92 1219.18,-333.34"/>
</g>
<!-- /home/theobori/fun/dv/test/example&#45;files/a/b.el&#45;&gt;/home/theobori/fun/dv/test/example&#45;files/aa.el -->
<g id="edge52" class="edge">
<title>/home/theobori/fun/dv/test/example&#45;files/a/b.el&#45;&gt;/home/theobori/fun/dv/test/example&#45;files/aa.el</title>
<path fill="none" stroke="black" d="M459.46,-432.32C417.44,-422.11 363.48,-408.99 319.6,-398.33"/>
<polygon fill="black" stroke="black" points="320.69,-394.99 310.14,-396.03 319.03,-401.79 320.69,-394.99"/>
</g>
<!-- peg -->
<g id="node7" class="node">
<title>peg</title>
<ellipse fill="none" stroke="red" cx="528.08" cy="-378" rx="29.64" ry="18"/>
<text text-anchor="middle" x="528.08" y="-373.32" font-family="Times,serif" font-size="14.00">peg</text>
</g>
<!-- /home/theobori/fun/dv/test/example&#45;files/a/b.el&#45;&gt;peg -->
<g id="edge50" class="edge">
<title>/home/theobori/fun/dv/test/example&#45;files/a/b.el&#45;&gt;peg</title>
<path fill="none" stroke="black" d="M528.08,-431.7C528.08,-424.41 528.08,-415.73 528.08,-407.54"/>
<polygon fill="black" stroke="black" points="531.58,-407.62 528.08,-397.62 524.58,-407.62 531.58,-407.62"/>
</g>
<!-- magit -->
<g id="node14" class="node">
<title>magit</title>
<ellipse fill="none" stroke="red" cx="482.08" cy="-306" rx="40.16" ry="18"/>
<text text-anchor="middle" x="482.08" y="-301.32" font-family="Times,serif" font-size="14.00">magit</text>
</g>
<!-- /home/theobori/fun/dv/test/example&#45;files/a/b.el&#45;&gt;magit -->
<g id="edge51" class="edge">
<title>/home/theobori/fun/dv/test/example&#45;files/a/b.el&#45;&gt;magit</title>
<path fill="none" stroke="black" d="M545.07,-431.82C560.96,-413.55 580.42,-384.04 567.08,-360 557.65,-343 540.24,-330.74 523.63,-322.32"/>
<polygon fill="black" stroke="black" points="525.38,-319.28 514.83,-318.21 522.41,-325.62 525.38,-319.28"/>
</g>
<!-- /home/theobori/fun/dv/test/example&#45;files/aa.el&#45;&gt;/home/theobori/fun/dv/test/example&#45;files/a/b/c.el -->
<g id="edge49" class="edge">
<title>/home/theobori/fun/dv/test/example&#45;files/aa.el&#45;&gt;/home/theobori/fun/dv/test/example&#45;files/a/b/c.el</title>
<path fill="none" stroke="black" d="M242.11,-396.49C245.41,-416.73 253.86,-449.64 275.08,-468 334.3,-519.24 538.13,-556.31 675.86,-576.22"/>
<polygon fill="black" stroke="black" points="675.01,-579.63 685.4,-577.58 676,-572.7 675.01,-579.63"/>
</g>
<!-- js -->
<g id="node6" class="node">
<title>js</title>
<ellipse fill="none" stroke="red" cx="240.08" cy="-306" rx="27" ry="18"/>
<text text-anchor="middle" x="240.08" y="-301.32" font-family="Times,serif" font-size="14.00">js</text>
</g>
<!-- /home/theobori/fun/dv/test/example&#45;files/aa.el&#45;&gt;js -->
<g id="edge48" class="edge">
<title>/home/theobori/fun/dv/test/example&#45;files/aa.el&#45;&gt;js</title>
<path fill="none" stroke="black" d="M240.08,-359.7C240.08,-352.41 240.08,-343.73 240.08,-335.54"/>
<polygon fill="black" stroke="black" points="243.58,-335.62 240.08,-325.62 236.58,-335.62 243.58,-335.62"/>
</g>
<!-- /home/theobori/fun/dv/test/example&#45;files/aa.el&#45;&gt;magit -->
<g id="edge47" class="edge">
<title>/home/theobori/fun/dv/test/example&#45;files/aa.el&#45;&gt;magit</title>
<path fill="none" stroke="black" d="M298.35,-360.14C341.25,-347.74 398.69,-331.12 437.85,-319.79"/>
<polygon fill="black" stroke="black" points="438.79,-323.16 447.43,-317.02 436.85,-316.44 438.79,-323.16"/>
</g>
<!-- plz&#45;event&#45;source -->
<g id="node9" class="node">
<title>plz&#45;event&#45;source</title>
<ellipse fill="none" stroke="red" cx="1296.08" cy="-234" rx="93.3" ry="18"/>
<text text-anchor="middle" x="1296.08" y="-229.32" font-family="Times,serif" font-size="14.00">plz&#45;event&#45;source</text>
</g>
<!-- llm&#45;&gt;plz&#45;event&#45;source -->
<g id="edge44" class="edge">
<title>llm&#45;&gt;plz&#45;event&#45;source</title>
<path fill="none" stroke="black" d="M1249.1,-289.81C1256.38,-281.31 1265.66,-270.49 1274.04,-260.72"/>
<polygon fill="black" stroke="black" points="1276.57,-263.15 1280.42,-253.28 1271.25,-258.59 1276.57,-263.15"/>
</g>
<!-- plz&#45;media&#45;type -->
<g id="node10" class="node">
<title>plz&#45;media&#45;type</title>
<ellipse fill="none" stroke="red" cx="1326.08" cy="-162" rx="84.88" ry="18"/>
<text text-anchor="middle" x="1326.08" y="-157.32" font-family="Times,serif" font-size="14.00">plz&#45;media&#45;type</text>
</g>
<!-- llm&#45;&gt;plz&#45;media&#45;type -->
<g id="edge45" class="edge">
<title>llm&#45;&gt;plz&#45;media&#45;type</title>
<path fill="none" stroke="black" d="M1263.42,-305.11C1300.92,-303.61 1367.16,-294.65 1398.08,-252 1407.47,-239.05 1405.3,-230.28 1398.08,-216 1391.73,-203.45 1380.86,-193.14 1369.46,-185.06"/>
<polygon fill="black" stroke="black" points="1371.4,-182.15 1361.11,-179.63 1367.58,-188.02 1371.4,-182.15"/>
</g>
<!-- plz -->
<g id="node11" class="node">
<title>plz</title>
<ellipse fill="none" stroke="red" cx="1326.08" cy="-90" rx="27" ry="18"/>
<text text-anchor="middle" x="1326.08" y="-85.33" font-family="Times,serif" font-size="14.00">plz</text>
</g>
<!-- llm&#45;&gt;plz -->
<g id="edge43" class="edge">
<title>llm&#45;&gt;plz</title>
<path fill="none" stroke="black" d="M1263.38,-305.8C1303.68,-305.35 1378.27,-297.88 1415.08,-252 1445.15,-214.52 1444.32,-185.49 1420.08,-144 1407.59,-122.61 1382.92,-109.18 1361.99,-101.19"/>
<polygon fill="black" stroke="black" points="1363.18,-97.9 1352.59,-97.89 1360.87,-104.5 1363.18,-97.9"/>
</g>
<!-- compat -->
<g id="node21" class="node">
<title>compat</title>
<ellipse fill="none" stroke="red" cx="539.08" cy="-90" rx="48.05" ry="18"/>
<text text-anchor="middle" x="539.08" y="-85.33" font-family="Times,serif" font-size="14.00">compat</text>
</g>
<!-- llm&#45;&gt;compat -->
<g id="edge46" class="edge">
<title>llm&#45;&gt;compat</title>
<path fill="none" stroke="black" d="M1217.59,-292.56C1202.22,-282.07 1179.91,-266.49 1161.08,-252 1141.33,-236.8 1140.34,-227.22 1118.08,-216 942.66,-127.54 706.62,-101.5 598.12,-93.97"/>
<polygon fill="black" stroke="black" points="598.5,-90.49 588.29,-93.32 598.04,-97.48 598.5,-90.49"/>
</g>
<!-- emacs -->
<g id="node25" class="node">
<title>emacs</title>
<ellipse fill="none" stroke="red" cx="877.08" cy="-18" rx="42.79" ry="18"/>
<text text-anchor="middle" x="877.08" y="-13.32" font-family="Times,serif" font-size="14.00">emacs</text>
</g>
<!-- llm&#45;&gt;emacs -->
<g id="edge42" class="edge">
<title>llm&#45;&gt;emacs</title>
<path fill="none" stroke="black" d="M1223.52,-289.68C1189.72,-249.27 1092.51,-138.37 991.08,-72 968.48,-57.21 941.09,-44.34 918.82,-34.98"/>
<polygon fill="black" stroke="black" points="920.33,-31.81 909.75,-31.25 917.67,-38.29 920.33,-31.81"/>
</g>
<!-- plz&#45;event&#45;source&#45;&gt;plz&#45;media&#45;type -->
<g id="edge41" class="edge">
<title>plz&#45;event&#45;source&#45;&gt;plz&#45;media&#45;type</title>
<path fill="none" stroke="black" d="M1303.5,-215.7C1306.73,-208.15 1310.6,-199.12 1314.22,-190.68"/>
<polygon fill="black" stroke="black" points="1317.43,-192.07 1318.15,-181.5 1311,-189.31 1317.43,-192.07"/>
</g>
<!-- plz&#45;event&#45;source&#45;&gt;emacs -->
<g id="edge40" class="edge">
<title>plz&#45;event&#45;source&#45;&gt;emacs</title>
<path fill="none" stroke="black" d="M1270.34,-216.34C1257.46,-206.94 1242.44,-194.23 1232.08,-180 1201.68,-138.22 1229.25,-104.49 1189.08,-72 1150.25,-40.59 1009.21,-27.06 930.72,-21.86"/>
<polygon fill="black" stroke="black" points="931.33,-18.39 921.13,-21.25 930.88,-25.38 931.33,-18.39"/>
</g>
<!-- plz&#45;media&#45;type&#45;&gt;plz -->
<g id="edge39" class="edge">
<title>plz&#45;media&#45;type&#45;&gt;plz</title>
<path fill="none" stroke="black" d="M1326.08,-143.7C1326.08,-136.41 1326.08,-127.73 1326.08,-119.54"/>
<polygon fill="black" stroke="black" points="1329.58,-119.62 1326.08,-109.62 1322.58,-119.62 1329.58,-119.62"/>
</g>
<!-- plz&#45;media&#45;type&#45;&gt;emacs -->
<g id="edge38" class="edge">
<title>plz&#45;media&#45;type&#45;&gt;emacs</title>
<path fill="none" stroke="black" d="M1312.71,-144.03C1295.36,-123.32 1263.03,-88.98 1227.08,-72 1175.53,-47.65 1014.88,-30.76 930.33,-23.3"/>
<polygon fill="black" stroke="black" points="930.7,-19.82 920.44,-22.44 930.1,-26.8 930.7,-19.82"/>
</g>
<!-- plz&#45;&gt;emacs -->
<g id="edge37" class="edge">
<title>plz&#45;&gt;emacs</title>
<path fill="none" stroke="black" d="M1302.99,-80.27C1294.34,-77.28 1284.36,-74.14 1275.08,-72 1153.47,-43.9 1007.27,-29.18 930.37,-22.87"/>
<polygon fill="black" stroke="black" points="930.85,-19.4 920.6,-22.09 930.29,-26.37 930.85,-19.4"/>
</g>
<!-- markdown&#45;mode -->
<g id="node24" class="node">
<title>markdown&#45;mode</title>
<ellipse fill="none" stroke="red" cx="1015.08" cy="-234" rx="94.35" ry="18"/>
<text text-anchor="middle" x="1015.08" y="-229.32" font-family="Times,serif" font-size="14.00">markdown&#45;mode</text>
</g>
<!-- /home/theobori/fun/dv/test/example&#45;files/d.el&#45;&gt;markdown&#45;mode -->
<g id="edge35" class="edge">
<title>/home/theobori/fun/dv/test/example&#45;files/d.el&#45;&gt;markdown&#45;mode</title>
<path fill="none" stroke="black" d="M1473.74,-504.5C1440.24,-495.8 1400.82,-483.64 1367.08,-468 1238.01,-408.17 1102.29,-305.11 1044.22,-258.78"/>
<polygon fill="black" stroke="black" points="1046.75,-256.32 1036.76,-252.79 1042.37,-261.78 1046.75,-256.32"/>
</g>
<!-- /home/theobori/fun/dv/test/example&#45;files/d.el&#45;&gt;/home/theobori/fun/dv/test/example&#45;files/a/b/c/d.el -->
<g id="edge36" class="edge">
<title>/home/theobori/fun/dv/test/example&#45;files/d.el&#45;&gt;/home/theobori/fun/dv/test/example&#45;files/a/b/c/d.el</title>
<path fill="none" stroke="black" d="M1571.08,-503.7C1581.99,-495.11 1595.35,-484.61 1607.26,-475.24"/>
<polygon fill="black" stroke="black" points="1609.14,-478.22 1614.84,-469.28 1604.81,-472.71 1609.14,-478.22"/>
</g>
<!-- fj&#45;&gt;magit -->
<g id="edge34" class="edge">
<title>fj&#45;&gt;magit</title>
<path fill="none" stroke="black" d="M774.6,-371.39C721.23,-359.64 597.07,-332.31 528.92,-317.31"/>
<polygon fill="black" stroke="black" points="529.68,-313.89 519.16,-315.16 528.17,-320.73 529.68,-313.89"/>
</g>
<!-- tp -->
<g id="node19" class="node">
<title>tp</title>
<ellipse fill="none" stroke="red" cx="800.08" cy="-234" rx="27" ry="18"/>
<text text-anchor="middle" x="800.08" y="-229.32" font-family="Times,serif" font-size="14.00">tp</text>
</g>
<!-- fj&#45;&gt;tp -->
<g id="edge32" class="edge">
<title>fj&#45;&gt;tp</title>
<path fill="none" stroke="black" d="M800.08,-359.59C800.08,-335.61 800.08,-292.14 800.08,-263.42"/>
<polygon fill="black" stroke="black" points="803.58,-263.62 800.08,-253.62 796.58,-263.62 803.58,-263.62"/>
</g>
<!-- transient -->
<g id="node20" class="node">
<title>transient</title>
<ellipse fill="none" stroke="red" cx="754.08" cy="-162" rx="57" ry="18"/>
<text text-anchor="middle" x="754.08" y="-157.32" font-family="Times,serif" font-size="14.00">transient</text>
</g>
<!-- fj&#45;&gt;transient -->
<g id="edge33" class="edge">
<title>fj&#45;&gt;transient</title>
<path fill="none" stroke="black" d="M794.27,-360.24C786.26,-336.46 771.92,-291.43 764.08,-252 760.11,-232.02 757.59,-209.19 756.07,-191.65"/>
<polygon fill="black" stroke="black" points="759.56,-191.39 755.27,-181.7 752.58,-191.95 759.56,-191.39"/>
</g>
<!-- fedi -->
<g id="node23" class="node">
<title>fedi</title>
<ellipse fill="none" stroke="red" cx="913.08" cy="-306" rx="30.16" ry="18"/>
<text text-anchor="middle" x="913.08" y="-301.32" font-family="Times,serif" font-size="14.00">fedi</text>
</g>
<!-- fj&#45;&gt;fedi -->
<g id="edge31" class="edge">
<title>fj&#45;&gt;fedi</title>
<path fill="none" stroke="black" d="M819.51,-364.97C837,-354.13 862.97,-338.04 883.12,-325.56"/>
<polygon fill="black" stroke="black" points="884.82,-328.62 891.48,-320.38 881.14,-322.67 884.82,-328.62"/>
</g>
<!-- fj&#45;&gt;emacs -->
<g id="edge30" class="edge">
<title>fj&#45;&gt;emacs</title>
<path fill="none" stroke="black" d="M805.38,-360.13C812.79,-336.21 826.41,-291.02 836.08,-252 851.81,-188.55 855.4,-172.49 866.08,-108 869.39,-88 872.18,-65.33 874.12,-47.87"/>
<polygon fill="black" stroke="black" points="877.6,-48.28 875.19,-37.96 870.64,-47.53 877.6,-48.28"/>
</g>
<!-- with&#45;editor -->
<g id="node15" class="node">
<title>with&#45;editor</title>
<ellipse fill="none" stroke="red" cx="575.08" cy="-162" rx="66.47" ry="18"/>
<text text-anchor="middle" x="575.08" y="-157.32" font-family="Times,serif" font-size="14.00">with&#45;editor</text>
</g>
<!-- magit&#45;&gt;with&#45;editor -->
<g id="edge29" class="edge">
<title>magit&#45;&gt;with&#45;editor</title>
<path fill="none" stroke="black" d="M492.93,-288.43C508.88,-264.09 538.8,-218.4 557.79,-189.4"/>
<polygon fill="black" stroke="black" points="560.63,-191.45 563.18,-181.17 554.78,-187.62 560.63,-191.45"/>
</g>
<!-- magit&#45;section -->
<g id="node16" class="node">
<title>magit&#45;section</title>
<ellipse fill="none" stroke="red" cx="375.08" cy="-234" rx="79.09" ry="18"/>
<text text-anchor="middle" x="375.08" y="-229.32" font-family="Times,serif" font-size="14.00">magit&#45;section</text>
</g>
<!-- magit&#45;&gt;magit&#45;section -->
<g id="edge26" class="edge">
<title>magit&#45;&gt;magit&#45;section</title>
<path fill="none" stroke="black" d="M459.91,-290.5C445.38,-280.99 426.08,-268.37 409.57,-257.56"/>
<polygon fill="black" stroke="black" points="411.77,-254.82 401.49,-252.28 407.94,-260.68 411.77,-254.82"/>
</g>
<!-- llama -->
<g id="node17" class="node">
<title>llama</title>
<ellipse fill="none" stroke="red" cx="452.08" cy="-162" rx="38.58" ry="18"/>
<text text-anchor="middle" x="452.08" y="-157.32" font-family="Times,serif" font-size="14.00">llama</text>
</g>
<!-- magit&#45;&gt;llama -->
<g id="edge25" class="edge">
<title>magit&#45;&gt;llama</title>
<path fill="none" stroke="black" d="M478.4,-287.59C473.31,-263.5 464.07,-219.75 458,-191.03"/>
<polygon fill="black" stroke="black" points="461.5,-190.65 456.01,-181.59 454.65,-192.1 461.5,-190.65"/>
</g>
<!-- cond&#45;let -->
<g id="node18" class="node">
<title>cond&#45;let</title>
<ellipse fill="none" stroke="red" cx="268.08" cy="-162" rx="51.21" ry="18"/>
<text text-anchor="middle" x="268.08" y="-157.32" font-family="Times,serif" font-size="14.00">cond&#45;let</text>
</g>
<!-- magit&#45;&gt;cond&#45;let -->
<g id="edge24" class="edge">
<title>magit&#45;&gt;cond&#45;let</title>
<path fill="none" stroke="black" d="M441.57,-305.64C397.22,-304.03 327.11,-294.3 287.08,-252 271.97,-236.04 267.67,-211.14 266.9,-191.73"/>
<polygon fill="black" stroke="black" points="270.4,-191.97 266.82,-182 263.4,-192.03 270.4,-191.97"/>
</g>
<!-- magit&#45;&gt;transient -->
<g id="edge28" class="edge">
<title>magit&#45;&gt;transient</title>
<path fill="none" stroke="black" d="M521.7,-301.95C564.53,-297.06 633.35,-284.42 683.08,-252 707.05,-236.38 726.62,-209.96 739.09,-189.96"/>
<polygon fill="black" stroke="black" points="742.04,-191.85 744.18,-181.47 736.04,-188.25 742.04,-191.85"/>
</g>
<!-- magit&#45;&gt;compat -->
<g id="edge23" class="edge">
<title>magit&#45;&gt;compat</title>
<path fill="none" stroke="black" d="M442.05,-302.82C396.28,-298.69 320.65,-286.72 266.08,-252 220.11,-222.75 172.73,-185.46 208.08,-144 242.29,-103.88 393.86,-94 479.54,-91.66"/>
<polygon fill="black" stroke="black" points="479.5,-95.16 489.41,-91.41 479.33,-88.16 479.5,-95.16"/>
</g>
<!-- seq -->
<g id="node22" class="node">
<title>seq</title>
<ellipse fill="none" stroke="red" cx="345.08" cy="-18" rx="28.59" ry="18"/>
<text text-anchor="middle" x="345.08" y="-13.32" font-family="Times,serif" font-size="14.00">seq</text>
</g>
<!-- magit&#45;&gt;seq -->
<g id="edge27" class="edge">
<title>magit&#45;&gt;seq</title>
<path fill="none" stroke="black" d="M442.51,-302.12C376.48,-296.52 247.84,-282 215.08,-252 156.08,-197.97 160.81,-131.69 214.08,-72 237.81,-45.42 276.77,-31.94 306.05,-25.25"/>
<polygon fill="black" stroke="black" points="306.58,-28.72 315.66,-23.24 305.15,-21.86 306.58,-28.72"/>
</g>
<!-- magit&#45;&gt;emacs -->
<g id="edge22" class="edge">
<title>magit&#45;&gt;emacs</title>
<path fill="none" stroke="black" d="M503.38,-290.38C535.89,-267.79 599.43,-222.58 650.08,-180 667.89,-165.03 669.87,-158.47 688.08,-144 739.54,-103.12 804.33,-62.36 843.14,-38.97"/>
<polygon fill="black" stroke="black" points="844.81,-42.05 851.59,-33.91 841.21,-36.04 844.81,-42.05"/>
</g>
<!-- with&#45;editor&#45;&gt;compat -->
<g id="edge21" class="edge">
<title>with&#45;editor&#45;&gt;compat</title>
<path fill="none" stroke="black" d="M566.18,-143.7C562.22,-135.98 557.45,-126.71 553.03,-118.11"/>
<polygon fill="black" stroke="black" points="556.26,-116.74 548.57,-109.45 550.03,-119.94 556.26,-116.74"/>
</g>
<!-- with&#45;editor&#45;&gt;emacs -->
<g id="edge20" class="edge">
<title>with&#45;editor&#45;&gt;emacs</title>
<path fill="none" stroke="black" d="M585.58,-144.09C599.11,-123.77 624.55,-90.16 655.08,-72 707.31,-40.94 776.63,-28.07 823.82,-22.75"/>
<polygon fill="black" stroke="black" points="823.93,-26.26 833.52,-21.74 823.21,-19.29 823.93,-26.26"/>
</g>
<!-- magit&#45;section&#45;&gt;llama -->
<g id="edge18" class="edge">
<title>magit&#45;section&#45;&gt;llama</title>
<path fill="none" stroke="black" d="M393.72,-216.05C403.62,-207.05 415.94,-195.85 426.71,-186.07"/>
<polygon fill="black" stroke="black" points="428.76,-188.93 433.81,-179.61 424.06,-183.75 428.76,-188.93"/>
</g>
<!-- magit&#45;section&#45;&gt;cond&#45;let -->
<g id="edge17" class="edge">
<title>magit&#45;section&#45;&gt;cond&#45;let</title>
<path fill="none" stroke="black" d="M349.99,-216.59C335.37,-207.02 316.74,-194.83 300.95,-184.5"/>
<polygon fill="black" stroke="black" points="303.1,-181.72 292.81,-179.18 299.26,-187.58 303.1,-181.72"/>
</g>
<!-- magit&#45;section&#45;&gt;compat -->
<g id="edge16" class="edge">
<title>magit&#45;section&#45;&gt;compat</title>
<path fill="none" stroke="black" d="M376.37,-215.72C378.72,-195.99 385.36,-163.87 404.08,-144 425.26,-121.54 457.11,-108.43 484.57,-100.88"/>
<polygon fill="black" stroke="black" points="485.33,-104.29 494.16,-98.43 483.6,-97.51 485.33,-104.29"/>
</g>
<!-- magit&#45;section&#45;&gt;seq -->
<g id="edge19" class="edge">
<title>magit&#45;section&#45;&gt;seq</title>
<path fill="none" stroke="black" d="M299.43,-228.49C265.79,-222.26 229.1,-208.72 208.08,-180 167.32,-124.3 260.36,-63.56 312.63,-35.24"/>
<polygon fill="black" stroke="black" points="314.26,-38.34 321.46,-30.57 310.98,-32.15 314.26,-38.34"/>
</g>
<!-- magit&#45;section&#45;&gt;emacs -->
<g id="edge15" class="edge">
<title>magit&#45;section&#45;&gt;emacs</title>
<path fill="none" stroke="black" d="M372.42,-215.7C370.35,-197.07 369.4,-167.02 380.08,-144 399.66,-101.79 414.02,-91.89 456.08,-72 519.99,-41.77 724.75,-27.08 823.21,-21.62"/>
<polygon fill="black" stroke="black" points="823.36,-25.11 833.16,-21.08 822.98,-18.12 823.36,-25.11"/>
</g>
<!-- llama&#45;&gt;compat -->
<g id="edge14" class="edge">
<title>llama&#45;&gt;compat</title>
<path fill="none" stroke="black" d="M470.96,-145.81C482.57,-136.47 497.68,-124.31 510.71,-113.83"/>
<polygon fill="black" stroke="black" points="512.56,-116.83 518.16,-107.84 508.17,-111.38 512.56,-116.83"/>
</g>
<!-- llama&#45;&gt;emacs -->
<g id="edge13" class="edge">
<title>llama&#45;&gt;emacs</title>
<path fill="none" stroke="black" d="M452.72,-143.59C454.48,-123.1 460.69,-89.63 482.08,-72 532.88,-30.11 726.45,-21.21 822.44,-19.4"/>
<polygon fill="black" stroke="black" points="822.47,-22.9 832.41,-19.24 822.36,-15.91 822.47,-22.9"/>
</g>
<!-- cond&#45;let&#45;&gt;emacs -->
<g id="edge12" class="edge">
<title>cond&#45;let&#45;&gt;emacs</title>
<path fill="none" stroke="black" d="M275.25,-143.81C284.98,-122.88 304.5,-88.31 333.08,-72 415.62,-24.9 702,-19.06 822.73,-18.75"/>
<polygon fill="black" stroke="black" points="822.38,-22.25 832.37,-18.73 822.37,-15.25 822.38,-22.25"/>
</g>
<!-- tp&#45;&gt;transient -->
<g id="edge11" class="edge">
<title>tp&#45;&gt;transient</title>
<path fill="none" stroke="black" d="M789.64,-217.12C784.21,-208.85 777.44,-198.54 771.26,-189.14"/>
<polygon fill="black" stroke="black" points="774.37,-187.5 765.95,-181.06 768.52,-191.34 774.37,-187.5"/>
</g>
<!-- tp&#45;&gt;emacs -->
<g id="edge10" class="edge">
<title>tp&#45;&gt;emacs</title>
<path fill="none" stroke="black" d="M806.47,-216.32C810.45,-205.9 815.62,-192.19 820.08,-180 837.13,-133.37 856.26,-78.86 867.46,-46.73"/>
<polygon fill="black" stroke="black" points="870.73,-47.99 870.71,-37.39 864.12,-45.69 870.73,-47.99"/>
</g>
<!-- transient&#45;&gt;compat -->
<g id="edge8" class="edge">
<title>transient&#45;&gt;compat</title>
<path fill="none" stroke="black" d="M715.64,-148.49C678.99,-136.55 623.76,-118.57 584.85,-105.9"/>
<polygon fill="black" stroke="black" points="586.37,-102.71 575.78,-102.95 584.2,-109.37 586.37,-102.71"/>
</g>
<!-- transient&#45;&gt;seq -->
<g id="edge9" class="edge">
<title>transient&#45;&gt;seq</title>
<path fill="none" stroke="black" d="M731.1,-145.06C701.28,-125.1 647.05,-91.21 596.08,-72 524.13,-44.87 435.06,-30.23 384.69,-23.57"/>
<polygon fill="black" stroke="black" points="385.22,-20.11 374.85,-22.31 384.33,-27.05 385.22,-20.11"/>
</g>
<!-- transient&#45;&gt;emacs -->
<g id="edge7" class="edge">
<title>transient&#45;&gt;emacs</title>
<path fill="none" stroke="black" d="M768.67,-144.15C790.15,-119.36 830.41,-72.88 855.37,-44.07"/>
<polygon fill="black" stroke="black" points="857.99,-46.38 861.9,-36.53 852.7,-41.8 857.99,-46.38"/>
</g>
<!-- compat&#45;&gt;seq -->
<g id="edge6" class="edge">
<title>compat&#45;&gt;seq</title>
<path fill="none" stroke="black" d="M505.29,-76.81C470.32,-64.19 415.93,-44.57 380.41,-31.75"/>
<polygon fill="black" stroke="black" points="381.6,-28.46 371.01,-28.35 379.23,-35.04 381.6,-28.46"/>
</g>
<!-- compat&#45;&gt;emacs -->
<g id="edge5" class="edge">
<title>compat&#45;&gt;emacs</title>
<path fill="none" stroke="black" d="M579.13,-79.73C590.42,-77.17 602.72,-74.43 614.08,-72 688.34,-56.1 774.68,-38.96 827.6,-28.6"/>
<polygon fill="black" stroke="black" points="828.06,-32.08 837.21,-26.73 826.72,-25.21 828.06,-32.08"/>
</g>
<!-- fedi&#45;&gt;markdown&#45;mode -->
<g id="edge4" class="edge">
<title>fedi&#45;&gt;markdown&#45;mode</title>
<path fill="none" stroke="black" d="M932.27,-291.83C946.06,-282.37 965.03,-269.35 981.34,-258.16"/>
<polygon fill="black" stroke="black" points="983.05,-261.22 989.32,-252.68 979.09,-255.45 983.05,-261.22"/>
</g>
<!-- fedi&#45;&gt;emacs -->
<g id="edge3" class="edge">
<title>fedi&#45;&gt;emacs</title>
<path fill="none" stroke="black" d="M912.68,-287.82C912.45,-277.44 912.19,-263.96 912.08,-252 911.93,-236 908.58,-231.61 912.08,-216 915.95,-198.73 925.21,-197.27 929.08,-180 939.58,-133.16 947.24,-116.43 929.08,-72 924.35,-60.43 915.74,-50.01 906.87,-41.54"/>
<polygon fill="black" stroke="black" points="909.34,-39.06 899.53,-35.05 904.7,-44.3 909.34,-39.06"/>
</g>
<!-- markdown&#45;mode&#45;&gt;emacs -->
<g id="edge2" class="edge">
<title>markdown&#45;mode&#45;&gt;emacs</title>
<path fill="none" stroke="black" d="M1014.01,-215.62C1011.24,-183.9 1001.42,-115.87 967.08,-72 954.68,-56.16 936.12,-44.09 919.07,-35.5"/>
<polygon fill="black" stroke="black" points="920.62,-32.36 910.08,-31.25 917.62,-38.69 920.62,-32.36"/>
</g>
<!-- python -->
<g id="node27" class="node">
<title>python</title>
<ellipse fill="none" stroke="red" cx="1638.08" cy="-378" rx="45.95" ry="18"/>
<text text-anchor="middle" x="1638.08" y="-373.32" font-family="Times,serif" font-size="14.00">python</text>
</g>
<!-- /home/theobori/fun/dv/test/example&#45;files/a/b/c/d.el&#45;&gt;python -->
<g id="edge1" class="edge">
<title>/home/theobori/fun/dv/test/example&#45;files/a/b/c/d.el&#45;&gt;python</title>
<path fill="none" stroke="black" d="M1638.08,-431.7C1638.08,-424.41 1638.08,-415.73 1638.08,-407.54"/>
<polygon fill="black" stroke="black" points="1641.58,-407.62 1638.08,-397.62 1634.58,-407.62 1641.58,-407.62"/>
</g>
</g>
</svg>
